<svg id="Layer_1" data-name="Layer 1" xmlns="http://www.w3.org/2000/svg" viewBox="0 0 1433.46 1367.87"><defs><style>.cls-1{fill:#525fe1;}.cls-2{fill:#ffa41b;}</style></defs><title>whatsapp_image_2023-06-16_at_10.15.24_am</title><path class="cls-1" d="M1055,276c-64.1,148.61-125.84,291.9-187.7,435.14q-95.46,221-190.85,442c-5.18,12.07-11.82,18.34-24.92,21.68-51,13-101.59,27.49-152.35,41.4-7.14,2-14.32,3.78-23.07,6.09-14.59-44.48-28.9-87.77-43-131.13-30-92.36-59.8-184.8-90.14-277.06-3.79-11.52-3.46-18.56,7.61-26.6q344.19-249.93,687.77-500.68C1042.24,284,1046.45,281.53,1055,276Z" transform="translate(-340.75 -276)"/><path class="cls-1" d="M1062.74,278c83.41,60.17,162.68,117.4,242,174.57Q1531.35,616,1758.26,779c15.19,10.87,19.45,19.86,13.12,38.17-24.34,70.43-47.28,141.35-69.71,212.41-4.39,13.89-10.85,17.74-25,18.33-83.92,3.53-167.79,8.1-251.65,12.86-11.23.64-17.82-1.07-23-12.69q-167-378.33-334.81-756.32C1066,289,1065.32,286,1062.74,278Z" transform="translate(-340.75 -276)"/><path class="cls-2" d="M1282,1643.42H1256.7c-207.08,0-414.17-.29-621.26.45-18.63.07-24.07-7.34-31.28-23-20.59-44.86-17.36-85.6,4.34-129.87,25.57-52.16,44.1-107.75,66.79-161.38,3.06-7.21,11.74-15,19.25-16.94,133.42-34.22,267.09-67.52,400.64-101.24,9.17-2.31,14.63-2,18.78,8.45q81.93,206,164.64,411.74C1279.73,1634.39,1280.29,1637.42,1282,1643.42Z" transform="translate(-340.75 -276)"/><path class="cls-1" d="M1063.35,1094.79,747.77,1150q83.85-207.45,167.05-413.26l4.68-1C967.33,855.11,1015.15,974.5,1063.35,1094.79Z" transform="translate(-340.75 -276)"/><path class="cls-2" d="M1440.17,1133.9l241.34-43.44c-37.29,114.14-73.21,224.09-110.58,338.45C1526.63,1329,1484.1,1233,1440.17,1133.9Z" transform="translate(-340.75 -276)"/><path class="cls-2" d="M596.54,1338.21,548.89,1448l-28.84-89.27Z" transform="translate(-340.75 -276)"/></svg>